<svg width="136" height="32" viewBox="0 0 136 32" fill="none" xmlns="http://www.w3.org/2000/svg">
<path d="M0.983849 23.4515C0.0521581 26.861 2.06085 30.3803 5.47039 31.312C8.87993 32.2437 12.3992 30.235 13.3309 26.8254L18.3436 8.48114C19.2753 5.0716 17.2666 1.55235 13.8571 0.620658C10.4476 -0.311033 6.9283 1.69766 5.99661 5.1072L0.983849 23.4515Z" fill="white"/>
<circle cx="7.23594" cy="25.2857" r="6.4" fill="white"/>
<circle cx="25.3687" cy="25.2857" r="6.4" fill="white"/>
<path d="M13.1121 21.0313C11.3618 17.963 7.31097 17.6839 6.16797 17.8472L6.84156 31.4049C11.173 30.7241 11.0219 30.3598 12.067 29.3147C14.7013 26.6804 17.368 26.3522 20.0346 29.0188C21.8412 30.8252 24.6192 31.5631 25.7622 31.5631V18.8854C22.6271 19.4733 21.1152 20.3598 20.568 21.0188C17.5811 24.6152 15.2346 24.7522 13.1121 21.0313Z" fill="white"/>
<ellipse cx="4.26478" cy="4.26478" rx="4.26478" ry="4.26478" transform="matrix(0.00412547 -0.999991 -0.999972 -0.00743936 29.6328 29.6118)" fill="#FC5D39"/>
<path d="M127.813 25.8815C126.532 25.8815 125.373 25.5699 124.334 24.9469C123.296 24.3238 122.465 23.493 121.842 22.4545C121.236 21.3987 120.934 20.2218 120.934 18.9237C120.934 17.6257 121.236 16.4574 121.842 15.4189C122.465 14.3631 123.304 13.5323 124.36 12.9266C125.416 12.3035 126.602 11.9919 127.917 11.9919C128.592 11.9919 129.241 12.0871 129.864 12.2775C130.211 12.3738 130.544 12.4968 130.864 12.6466C131.194 12.8015 131.603 12.5751 131.603 12.2099V7.9168C131.603 7.69153 131.766 7.49921 131.989 7.46191L134.623 7.01966C134.904 6.97244 135.16 7.18931 135.16 7.47456V25.2385C135.16 25.4932 134.954 25.6997 134.699 25.6997H132.022C131.819 25.6997 131.656 25.5359 131.656 25.3338C131.656 25.0288 131.299 24.8518 131.039 25.0098C130.08 25.5909 129.004 25.8815 127.813 25.8815ZM128.384 22.844C129.042 22.844 129.639 22.7401 130.175 22.5324C130.673 22.3305 131.108 22.0448 131.479 21.6755C131.561 21.5939 131.603 21.4816 131.603 21.366V16.4667C131.603 16.3444 131.556 16.2261 131.465 16.1437C131.097 15.8081 130.667 15.5406 130.175 15.341C129.622 15.116 129.025 15.0035 128.384 15.0035C127.64 15.0035 126.965 15.1766 126.359 15.5227C125.771 15.8516 125.304 16.3189 124.958 16.9247C124.611 17.5132 124.438 18.1795 124.438 18.9237C124.438 19.668 124.611 20.3343 124.958 20.9228C125.304 21.5113 125.771 21.9786 126.359 22.3247C126.965 22.6709 127.64 22.844 128.384 22.844Z" fill="white"/>
<path d="M115.158 25.6999C114.904 25.6999 114.697 25.4934 114.697 25.2386V12.6351C114.697 12.3804 114.904 12.1738 115.158 12.1738H117.792C118.047 12.1738 118.254 12.3804 118.254 12.6351V25.2386C118.254 25.4934 118.047 25.6999 117.792 25.6999H115.158ZM116.462 10.5642C115.909 10.5642 115.432 10.3652 115.035 9.96706C114.636 9.56897 114.438 9.09301 114.438 8.53918C114.438 7.96804 114.636 7.49205 115.035 7.11128C115.432 6.7132 115.909 6.51416 116.462 6.51416C117.034 6.51416 117.51 6.7132 117.89 7.11128C118.288 7.49205 118.487 7.96804 118.487 8.53918C118.487 9.09301 118.288 9.56897 117.89 9.96706C117.51 10.3652 117.034 10.5642 116.462 10.5642Z" fill="white"/>
<path d="M104.089 25.9339C103.12 25.9339 102.263 25.7608 101.519 25.4147C100.775 25.0512 100.195 24.5579 99.7792 23.9349C99.3641 23.3118 99.1562 22.5935 99.1562 21.78C99.1562 20.482 99.6408 19.4781 100.61 18.7685C101.597 18.0415 102.947 17.6781 104.66 17.6781C105.606 17.6781 106.507 17.7954 107.362 18.03C107.669 18.1139 107.983 17.8909 107.983 17.5731V17.2367C107.983 16.4579 107.741 15.8694 107.256 15.4713C106.772 15.0732 106.062 14.8742 105.128 14.8742C104.556 14.8742 103.942 14.9694 103.285 15.1598C102.731 15.3053 102.104 15.5243 101.405 15.8167C101.177 15.9118 100.914 15.8165 100.804 15.5954L99.9134 13.7968C99.7978 13.5627 99.899 13.2787 100.139 13.1763C101.053 12.7866 101.928 12.4872 102.765 12.278C103.752 12.0357 104.738 11.9146 105.725 11.9146C107.542 11.9146 108.953 12.3559 109.956 13.2386C110.977 14.104 111.488 15.3329 111.488 16.9252V25.239C111.488 25.4938 111.282 25.7002 111.027 25.7002H108.303C108.127 25.7002 107.983 25.5569 107.983 25.3801C107.983 25.1162 107.679 24.9612 107.452 25.096C107.052 25.3333 106.632 25.5174 106.192 25.6483C105.552 25.8387 104.851 25.9339 104.089 25.9339ZM102.532 21.7021C102.532 22.2214 102.756 22.6368 103.207 22.9483C103.656 23.2425 104.254 23.3897 104.998 23.3897C105.586 23.3897 106.132 23.3204 106.633 23.182C107.056 23.0506 107.443 22.8699 107.793 22.6401C107.915 22.5596 107.983 22.4206 107.983 22.2743V20.8462C107.983 20.6575 107.869 20.4866 107.691 20.4244C107.349 20.305 106.996 20.2116 106.633 20.1444C106.166 20.0579 105.664 20.0146 105.128 20.0146C104.314 20.0146 103.674 20.1704 103.207 20.482C102.756 20.7762 102.532 21.1829 102.532 21.7021Z" fill="white"/>
<path d="M84.7121 25.6999C84.3314 25.6999 84.1145 25.2647 84.344 24.9608L88.7678 19.0992C88.8924 18.9341 88.8918 18.7063 88.7665 18.5418L84.4802 12.9146C84.2489 12.611 84.4654 12.1738 84.8471 12.1738H87.8117C87.9578 12.1738 88.0951 12.243 88.1821 12.3602L90.6574 15.6965C90.8423 15.9456 91.2156 15.9449 91.3994 15.6949L93.851 12.3618C93.9379 12.2436 94.0756 12.1738 94.2224 12.1738H97.0604C97.4414 12.1738 97.6582 12.6094 97.4282 12.9132L93.2137 18.4885C93.0891 18.6537 93.0897 18.882 93.2155 19.0466L97.7325 24.9586C97.9643 25.2622 97.7481 25.6999 97.3659 25.6999H94.3769C94.2308 25.6999 94.0936 25.6307 94.0068 25.5133L91.3221 21.8904C91.1377 21.6415 90.7654 21.6415 90.5809 21.8904L87.8965 25.5133C87.8096 25.6307 87.6721 25.6999 87.5259 25.6999H84.7121Z" fill="white"/>
<path d="M74.5708 25.9595C73.5323 25.9595 72.6063 25.7345 71.7929 25.2845C70.9967 24.8172 70.3649 24.1768 69.8977 23.3633C69.4476 22.5498 69.2227 21.6152 69.2227 20.5594V12.6351C69.2227 12.3804 69.4292 12.1738 69.6839 12.1738H72.3181C72.5729 12.1738 72.7794 12.3804 72.7794 12.6351V20.0402C72.7794 20.9056 73.0303 21.5979 73.5323 22.1172C74.0515 22.6364 74.7438 22.896 75.6093 22.896C76.1977 22.896 76.7256 22.7835 77.1929 22.5585C77.6322 22.3389 78.0004 22.0409 78.2975 21.6648C78.3575 21.5889 78.3871 21.494 78.3871 21.3973V12.6351C78.3871 12.3804 78.5937 12.1738 78.8484 12.1738H81.4826C81.7374 12.1738 81.9439 12.3804 81.9439 12.6351V25.2386C81.9439 25.4934 81.7374 25.6999 81.4826 25.6999H78.7289C78.5402 25.6999 78.3871 25.5469 78.3871 25.3581C78.3871 25.0651 78.0356 24.9003 77.7904 25.0605C76.8728 25.6598 75.7996 25.9595 74.5708 25.9595Z" fill="white"/>
<path d="M54.0081 25.7002C53.7533 25.7002 53.5469 25.4938 53.5469 25.239V12.6354C53.5469 12.3807 53.7533 12.1742 54.0081 12.1742H56.7593C56.9495 12.1742 57.1036 12.3283 57.1036 12.5185C57.1036 12.8164 57.4647 12.9823 57.7126 12.8169C58.6141 12.2154 59.6746 11.9146 60.894 11.9146C61.9498 11.9146 62.8758 12.1482 63.6719 12.6156C64.4854 13.0655 65.1172 13.6973 65.5671 14.5108C66.0172 15.3069 66.2421 16.2415 66.2421 17.3146V25.239C66.2421 25.4938 66.0357 25.7002 65.7809 25.7002H63.1467C62.8919 25.7002 62.6854 25.4938 62.6854 25.239V17.8339C62.6854 16.9511 62.4345 16.2588 61.9325 15.7569C61.4306 15.2377 60.7469 14.978 59.8815 14.978C59.2758 14.978 58.7392 15.0992 58.2719 15.3415C57.8483 15.5455 57.4887 15.8347 57.1932 16.2093C57.1332 16.2852 57.1036 16.3801 57.1036 16.4769V25.239C57.1036 25.4938 56.8971 25.7002 56.6424 25.7002H54.0081Z" fill="white"/>
<path d="M47.1506 25.6999C46.8958 25.6999 46.6894 25.4934 46.6894 25.2386V12.6351C46.6894 12.3804 46.8958 12.1738 47.1506 12.1738H49.7848C50.0396 12.1738 50.2461 12.3804 50.2461 12.6351V25.2386C50.2461 25.4934 50.0396 25.6999 49.7848 25.6999H47.1506ZM48.4547 10.5642C47.9009 10.5642 47.4249 10.3652 47.0268 9.96706C46.6287 9.56897 46.4297 9.09301 46.4297 8.53918C46.4297 7.96804 46.6287 7.49205 47.0268 7.11128C47.4249 6.7132 47.9009 6.51416 48.4547 6.51416C49.0259 6.51416 49.5019 6.7132 49.8826 7.11128C50.2807 7.49205 50.4797 7.96804 50.4797 8.53918C50.4797 9.09301 50.2807 9.56897 49.8826 9.96706C49.5019 10.3652 49.0259 10.5642 48.4547 10.5642Z" fill="white"/>
<path d="M40.2933 25.6997C40.0386 25.6997 39.832 25.4932 39.832 25.2385V7.9168C39.832 7.69153 39.9948 7.49921 40.2169 7.46191L42.8511 7.01966C43.1325 6.97244 43.3888 7.18931 43.3888 7.47456V25.2385C43.3888 25.4932 43.1823 25.6997 42.9275 25.6997H40.2933Z" fill="white"/>
<ellipse cx="2.24" cy="2.24" rx="2.24" ry="2.24" transform="matrix(0.00412547 -0.999991 -0.999972 -0.00743936 118.867 10.9136)" fill="#FC5D39"/>
</svg>